<svg width="2066" height="619" viewBox="0 0 2066 619" fill="none" xmlns="http://www.w3.org/2000/svg">
<path d="M158.994 102.957L320.503 148.254V618H479.498V0L158.994 102.957Z" fill="white"/>
<path d="M0 154V618H158.994V102.957L0 154Z" fill="#00667F"/>
<path d="M856.501 420.001L828.841 462.514C785.493 448.917 754.84 421.088 737.428 386.008C719.744 424.08 688.366 454.628 643.022 469.676L615 427.162C679.207 406.313 708.952 356.185 708.952 307.325V301.796H629.51V258.466H842.082V301.796H764.272V307.325C764.272 353.646 792.748 400.783 856.501 419.91V420.001ZM947.551 610.814H678.028V485.448H732.894V567.484H947.551V610.814ZM937.303 510.92H882.891V231.363H937.303V510.92Z" fill="white"/>
<path d="M1338.96 491.431H1187.6V618.066H1134V491.431H984.824V447.195H1338.96V491.431ZM1301.96 331.619C1301.96 384.285 1243.74 417.916 1160.85 417.916C1077.96 417.916 1020.1 384.376 1020.55 331.619C1020.1 278.046 1077.96 243.691 1160.85 243.691C1243.74 243.691 1301.96 278.137 1301.96 331.619ZM1076.24 331.619C1075.78 359.267 1108.97 374.949 1160.85 374.949C1212.72 374.949 1245.91 359.267 1245.91 331.619C1245.91 303.972 1213.17 287.02 1160.85 287.02C1108.52 287.02 1075.78 303.156 1076.24 331.619Z" fill="white"/>
<path d="M1384.3 475.296L1362.17 432.419C1442.34 407.31 1493.94 361.261 1504.19 304.062H1382.22V259.826H1563.32C1563.32 363.527 1497.39 440.034 1384.39 475.296H1384.3ZM1692.91 610.814H1428.1V485.448H1483.33V567.484H1692.91V610.814ZM1683.12 513.912H1629.16V387.73H1559.87V343.131H1629.16V231.363H1683.12V513.912Z" fill="white"/>
<path d="M1962.34 380.931L1933.87 422.539C1892.42 409.123 1863.49 383.198 1846.72 349.839C1829.94 387.005 1799.29 416.375 1754.04 430.606L1726.01 387.73C1790.22 369.056 1818.7 321.829 1819.15 271.701V243.691H1874.01V271.701C1873.56 318.022 1900.77 362.62 1962.44 380.931H1962.34ZM2055.03 547.089H1851.8V570.838H2066V613.352H1798.2V507.566H2001.43V485.448H1797.84V443.841H2055.03V547.089ZM2055.03 427.706H2001.07V331.71H1928.34V288.833H2001.07V231H2055.03V427.706Z" fill="white"/>
</svg>
